<mxfile host="app.diagrams.net" modified="2024-03-03T01:19:05.219Z" agent="Mozilla/5.0 (Macintosh; Intel Mac OS X 10_15_7) AppleWebKit/605.1.15 (KHTML, like Gecko) Version/16.4 Safari/605.1.15" etag="D28k-Z2ZU7azyD5iXmOW" version="23.0.1" type="github">
  <diagram name="第 1 页" id="UymdT3Nfy-kPFd5jFgst">
    <mxGraphModel dx="921" dy="684" grid="1" gridSize="10" guides="1" tooltips="1" connect="1" arrows="1" fold="1" page="1" pageScale="1" pageWidth="827" pageHeight="1169" math="0" shadow="0">
      <root>
        <mxCell id="0" />
        <mxCell id="1" parent="0" />
        <mxCell id="P8aMWn9-jZdc1NeW5d5N-42" value="" style="rounded=0;whiteSpace=wrap;html=1;" vertex="1" parent="1">
          <mxGeometry x="220" y="80" width="230" height="560" as="geometry" />
        </mxCell>
        <mxCell id="P8aMWn9-jZdc1NeW5d5N-1" value="" style="group" vertex="1" connectable="0" parent="1">
          <mxGeometry x="230" y="90" width="210" height="263" as="geometry" />
        </mxCell>
        <mxCell id="P8aMWn9-jZdc1NeW5d5N-2" value="" style="rounded=1;whiteSpace=wrap;html=1;dashed=1;strokeWidth=2;strokeColor=#FF0000;" vertex="1" parent="P8aMWn9-jZdc1NeW5d5N-1">
          <mxGeometry width="210" height="260" as="geometry" />
        </mxCell>
        <mxCell id="P8aMWn9-jZdc1NeW5d5N-9" value="&lt;font color=&quot;#ff0000&quot; style=&quot;font-size: 18px;&quot; face=&quot;Times New Roman&quot;&gt;BSs&lt;/font&gt;&lt;font color=&quot;#ff0000&quot; face=&quot;Times New Roman&quot;&gt;&lt;font size=&quot;4&quot;&gt;智能体&lt;/font&gt;&lt;/font&gt;" style="text;html=1;align=center;verticalAlign=middle;resizable=0;points=[];autosize=1;strokeColor=none;fillColor=none;" vertex="1" parent="P8aMWn9-jZdc1NeW5d5N-1">
          <mxGeometry y="14" width="110" height="30" as="geometry" />
        </mxCell>
        <mxCell id="P8aMWn9-jZdc1NeW5d5N-18" value="" style="group" vertex="1" connectable="0" parent="P8aMWn9-jZdc1NeW5d5N-1">
          <mxGeometry x="20" y="44" width="180" height="90" as="geometry" />
        </mxCell>
        <mxCell id="P8aMWn9-jZdc1NeW5d5N-17" value="" style="rounded=0;whiteSpace=wrap;html=1;dashed=1;dashPattern=12 12;strokeColor=#FF0000;" vertex="1" parent="P8aMWn9-jZdc1NeW5d5N-18">
          <mxGeometry width="180" height="90" as="geometry" />
        </mxCell>
        <mxCell id="P8aMWn9-jZdc1NeW5d5N-5" value="&lt;font size=&quot;4&quot; face=&quot;Times New Roman&quot;&gt;&lt;b&gt;DDPG&lt;/b&gt;&lt;/font&gt;" style="rounded=0;whiteSpace=wrap;html=1;fillColor=#ffe6cc;strokeColor=#d79b00;movable=1;resizable=1;rotatable=1;deletable=1;editable=1;locked=0;connectable=1;" vertex="1" parent="P8aMWn9-jZdc1NeW5d5N-18">
          <mxGeometry x="17.54000000000002" y="15" width="144.91941176470584" height="60" as="geometry" />
        </mxCell>
        <mxCell id="P8aMWn9-jZdc1NeW5d5N-19" value="&lt;font color=&quot;#ff0000&quot; style=&quot;font-size: 18px;&quot; face=&quot;Times New Roman&quot;&gt;BS&lt;/font&gt;&lt;font size=&quot;4&quot; color=&quot;#ff0000&quot; face=&quot;Times New Roman&quot;&gt;&amp;nbsp;1&lt;/font&gt;" style="text;html=1;align=center;verticalAlign=middle;resizable=0;points=[];autosize=1;strokeColor=none;fillColor=none;rotation=-90;" vertex="1" parent="P8aMWn9-jZdc1NeW5d5N-1">
          <mxGeometry x="-20" y="70" width="60" height="30" as="geometry" />
        </mxCell>
        <mxCell id="P8aMWn9-jZdc1NeW5d5N-21" value="" style="endArrow=none;dashed=1;html=1;dashPattern=1 3;strokeWidth=2;rounded=0;" edge="1" parent="P8aMWn9-jZdc1NeW5d5N-1">
          <mxGeometry width="50" height="50" relative="1" as="geometry">
            <mxPoint x="70" y="164" as="sourcePoint" />
            <mxPoint x="70" y="134" as="targetPoint" />
          </mxGeometry>
        </mxCell>
        <mxCell id="P8aMWn9-jZdc1NeW5d5N-25" value="&lt;font color=&quot;#ff0000&quot; style=&quot;font-size: 18px;&quot; face=&quot;Times New Roman&quot;&gt;BS&lt;/font&gt;&lt;font size=&quot;4&quot; color=&quot;#ff0000&quot; face=&quot;Times New Roman&quot;&gt;&amp;nbsp;S&lt;/font&gt;" style="text;html=1;align=center;verticalAlign=middle;resizable=0;points=[];autosize=1;strokeColor=none;fillColor=none;rotation=-90;" vertex="1" parent="P8aMWn9-jZdc1NeW5d5N-1">
          <mxGeometry x="-20" y="186" width="60" height="30" as="geometry" />
        </mxCell>
        <mxCell id="P8aMWn9-jZdc1NeW5d5N-26" value="" style="endArrow=none;dashed=1;html=1;dashPattern=1 3;strokeWidth=2;rounded=0;" edge="1" parent="P8aMWn9-jZdc1NeW5d5N-1">
          <mxGeometry width="50" height="50" relative="1" as="geometry">
            <mxPoint x="140" y="164" as="sourcePoint" />
            <mxPoint x="140" y="134" as="targetPoint" />
          </mxGeometry>
        </mxCell>
        <mxCell id="P8aMWn9-jZdc1NeW5d5N-22" value="" style="group" vertex="1" connectable="0" parent="P8aMWn9-jZdc1NeW5d5N-1">
          <mxGeometry x="20" y="160" width="180" height="90" as="geometry" />
        </mxCell>
        <mxCell id="P8aMWn9-jZdc1NeW5d5N-23" value="" style="rounded=0;whiteSpace=wrap;html=1;dashed=1;dashPattern=12 12;strokeColor=#FF0000;" vertex="1" parent="P8aMWn9-jZdc1NeW5d5N-22">
          <mxGeometry width="180" height="90" as="geometry" />
        </mxCell>
        <mxCell id="P8aMWn9-jZdc1NeW5d5N-24" value="&lt;font size=&quot;4&quot; face=&quot;Times New Roman&quot;&gt;&lt;b&gt;DDPG&lt;/b&gt;&lt;/font&gt;" style="rounded=0;whiteSpace=wrap;html=1;fillColor=#ffe6cc;strokeColor=#d79b00;movable=1;resizable=1;rotatable=1;deletable=1;editable=1;locked=0;connectable=1;" vertex="1" parent="P8aMWn9-jZdc1NeW5d5N-22">
          <mxGeometry x="17.54000000000002" y="15" width="144.91941176470584" height="60" as="geometry" />
        </mxCell>
        <mxCell id="P8aMWn9-jZdc1NeW5d5N-28" value="" style="group" vertex="1" connectable="0" parent="1">
          <mxGeometry x="230" y="370" width="210" height="263" as="geometry" />
        </mxCell>
        <mxCell id="P8aMWn9-jZdc1NeW5d5N-29" value="" style="rounded=1;whiteSpace=wrap;html=1;dashed=1;strokeWidth=2;strokeColor=#3333FF;" vertex="1" parent="P8aMWn9-jZdc1NeW5d5N-28">
          <mxGeometry width="210" height="260" as="geometry" />
        </mxCell>
        <mxCell id="P8aMWn9-jZdc1NeW5d5N-30" value="&lt;font color=&quot;#3333ff&quot;&gt;&lt;font style=&quot;font-size: 18px;&quot; face=&quot;Times New Roman&quot;&gt;RISs&lt;/font&gt;&lt;font face=&quot;Times New Roman&quot;&gt;&lt;font size=&quot;4&quot;&gt;智能体&lt;/font&gt;&lt;/font&gt;&lt;/font&gt;" style="text;html=1;align=center;verticalAlign=middle;resizable=0;points=[];autosize=1;strokeColor=none;fillColor=none;" vertex="1" parent="P8aMWn9-jZdc1NeW5d5N-28">
          <mxGeometry y="14" width="110" height="30" as="geometry" />
        </mxCell>
        <mxCell id="P8aMWn9-jZdc1NeW5d5N-31" value="" style="group;fontColor=#3333FF;" vertex="1" connectable="0" parent="P8aMWn9-jZdc1NeW5d5N-28">
          <mxGeometry x="20" y="44" width="180" height="90" as="geometry" />
        </mxCell>
        <mxCell id="P8aMWn9-jZdc1NeW5d5N-32" value="" style="rounded=0;whiteSpace=wrap;html=1;dashed=1;dashPattern=12 12;strokeColor=#FF0000;" vertex="1" parent="P8aMWn9-jZdc1NeW5d5N-31">
          <mxGeometry width="180" height="90" as="geometry" />
        </mxCell>
        <mxCell id="P8aMWn9-jZdc1NeW5d5N-33" value="&lt;font size=&quot;4&quot; face=&quot;Times New Roman&quot;&gt;&lt;b&gt;DDPG&lt;/b&gt;&lt;/font&gt;" style="rounded=0;whiteSpace=wrap;html=1;fillColor=#ffe6cc;strokeColor=#d79b00;movable=1;resizable=1;rotatable=1;deletable=1;editable=1;locked=0;connectable=1;" vertex="1" parent="P8aMWn9-jZdc1NeW5d5N-31">
          <mxGeometry x="17.54000000000002" y="15" width="144.91941176470584" height="60" as="geometry" />
        </mxCell>
        <mxCell id="P8aMWn9-jZdc1NeW5d5N-34" value="&lt;font color=&quot;#3333ff&quot; size=&quot;4&quot; face=&quot;Times New Roman&quot;&gt;&lt;span style=&quot;caret-color: rgb(255, 0, 0);&quot;&gt;RIS 1&lt;/span&gt;&lt;/font&gt;" style="text;html=1;align=center;verticalAlign=middle;resizable=0;points=[];autosize=1;strokeColor=none;fillColor=none;rotation=-90;" vertex="1" parent="P8aMWn9-jZdc1NeW5d5N-28">
          <mxGeometry x="-25" y="70" width="70" height="30" as="geometry" />
        </mxCell>
        <mxCell id="P8aMWn9-jZdc1NeW5d5N-35" value="" style="endArrow=none;dashed=1;html=1;dashPattern=1 3;strokeWidth=2;rounded=0;" edge="1" parent="P8aMWn9-jZdc1NeW5d5N-28">
          <mxGeometry width="50" height="50" relative="1" as="geometry">
            <mxPoint x="70" y="164" as="sourcePoint" />
            <mxPoint x="70" y="134" as="targetPoint" />
          </mxGeometry>
        </mxCell>
        <mxCell id="P8aMWn9-jZdc1NeW5d5N-36" value="&lt;font color=&quot;#3333ff&quot; size=&quot;4&quot; face=&quot;Times New Roman&quot;&gt;&lt;span style=&quot;caret-color: rgb(255, 0, 0);&quot;&gt;RIS L&lt;/span&gt;&lt;/font&gt;" style="text;html=1;align=center;verticalAlign=middle;resizable=0;points=[];autosize=1;strokeColor=none;fillColor=none;rotation=-90;" vertex="1" parent="P8aMWn9-jZdc1NeW5d5N-28">
          <mxGeometry x="-25" y="186" width="70" height="30" as="geometry" />
        </mxCell>
        <mxCell id="P8aMWn9-jZdc1NeW5d5N-37" value="" style="endArrow=none;dashed=1;html=1;dashPattern=1 3;strokeWidth=2;rounded=0;" edge="1" parent="P8aMWn9-jZdc1NeW5d5N-28">
          <mxGeometry width="50" height="50" relative="1" as="geometry">
            <mxPoint x="140" y="164" as="sourcePoint" />
            <mxPoint x="140" y="134" as="targetPoint" />
          </mxGeometry>
        </mxCell>
        <mxCell id="P8aMWn9-jZdc1NeW5d5N-38" value="" style="group;fontColor=#3333FF;" vertex="1" connectable="0" parent="P8aMWn9-jZdc1NeW5d5N-28">
          <mxGeometry x="20" y="160" width="180" height="90" as="geometry" />
        </mxCell>
        <mxCell id="P8aMWn9-jZdc1NeW5d5N-39" value="" style="rounded=0;whiteSpace=wrap;html=1;dashed=1;dashPattern=12 12;strokeColor=#FF0000;" vertex="1" parent="P8aMWn9-jZdc1NeW5d5N-38">
          <mxGeometry width="180" height="90" as="geometry" />
        </mxCell>
        <mxCell id="P8aMWn9-jZdc1NeW5d5N-40" value="&lt;font size=&quot;4&quot; face=&quot;Times New Roman&quot;&gt;&lt;b&gt;DDPG&lt;/b&gt;&lt;/font&gt;" style="rounded=0;whiteSpace=wrap;html=1;fillColor=#ffe6cc;strokeColor=#d79b00;movable=1;resizable=1;rotatable=1;deletable=1;editable=1;locked=0;connectable=1;" vertex="1" parent="P8aMWn9-jZdc1NeW5d5N-38">
          <mxGeometry x="17.54000000000002" y="15" width="144.91941176470584" height="60" as="geometry" />
        </mxCell>
        <mxCell id="P8aMWn9-jZdc1NeW5d5N-43" value="" style="endArrow=classic;html=1;rounded=0;strokeWidth=2;exitX=1.009;exitY=0.154;exitDx=0;exitDy=0;exitPerimeter=0;" edge="1" parent="1">
          <mxGeometry width="50" height="50" relative="1" as="geometry">
            <mxPoint x="449.99999999999994" y="160.24" as="sourcePoint" />
            <mxPoint x="517.93" y="160" as="targetPoint" />
          </mxGeometry>
        </mxCell>
        <mxCell id="P8aMWn9-jZdc1NeW5d5N-46" value="" style="endArrow=classic;html=1;rounded=0;strokeWidth=2;exitX=1.009;exitY=0.154;exitDx=0;exitDy=0;exitPerimeter=0;" edge="1" parent="1">
          <mxGeometry width="50" height="50" relative="1" as="geometry">
            <mxPoint x="450" y="240" as="sourcePoint" />
            <mxPoint x="518" y="240" as="targetPoint" />
          </mxGeometry>
        </mxCell>
        <mxCell id="P8aMWn9-jZdc1NeW5d5N-47" value="" style="endArrow=classic;html=1;rounded=0;strokeWidth=2;exitX=1.009;exitY=0.154;exitDx=0;exitDy=0;exitPerimeter=0;" edge="1" parent="1">
          <mxGeometry width="50" height="50" relative="1" as="geometry">
            <mxPoint x="449.99999999999994" y="520.24" as="sourcePoint" />
            <mxPoint x="517.93" y="520" as="targetPoint" />
          </mxGeometry>
        </mxCell>
        <mxCell id="P8aMWn9-jZdc1NeW5d5N-48" value="" style="rounded=1;whiteSpace=wrap;html=1;" vertex="1" parent="1">
          <mxGeometry x="520" y="120" width="140" height="450" as="geometry" />
        </mxCell>
        <mxCell id="P8aMWn9-jZdc1NeW5d5N-49" value="&lt;font style=&quot;font-size: 18px;&quot; face=&quot;Times New Roman&quot;&gt;&lt;b&gt;局部策略 1&lt;/b&gt;&lt;/font&gt;" style="rounded=0;whiteSpace=wrap;html=1;fillColor=#f5f5f5;strokeColor=#666666;gradientColor=#b3b3b3;" vertex="1" parent="1">
          <mxGeometry x="540" y="140" width="100" height="49" as="geometry" />
        </mxCell>
        <mxCell id="P8aMWn9-jZdc1NeW5d5N-50" value="&lt;font style=&quot;font-size: 18px;&quot; face=&quot;Times New Roman&quot;&gt;&lt;b&gt;局部策略 2&lt;/b&gt;&lt;/font&gt;" style="rounded=0;whiteSpace=wrap;html=1;fillColor=#f5f5f5;strokeColor=#666666;gradientColor=#b3b3b3;" vertex="1" parent="1">
          <mxGeometry x="540" y="220" width="100" height="49" as="geometry" />
        </mxCell>
        <mxCell id="P8aMWn9-jZdc1NeW5d5N-51" value="&lt;font style=&quot;font-size: 18px;&quot; face=&quot;Times New Roman&quot;&gt;&lt;b&gt;局部策略 S+L&lt;/b&gt;&lt;/font&gt;" style="rounded=0;whiteSpace=wrap;html=1;fillColor=#f5f5f5;strokeColor=#666666;gradientColor=#b3b3b3;" vertex="1" parent="1">
          <mxGeometry x="540" y="500" width="100" height="49" as="geometry" />
        </mxCell>
        <mxCell id="P8aMWn9-jZdc1NeW5d5N-52" value="&lt;font size=&quot;1&quot; face=&quot;Times New Roman&quot;&gt;&lt;b style=&quot;font-size: 16px;&quot;&gt;联合策略&lt;/b&gt;&lt;/font&gt;" style="text;html=1;align=center;verticalAlign=middle;resizable=0;points=[];autosize=1;strokeColor=none;fillColor=none;" vertex="1" parent="1">
          <mxGeometry x="545" y="580" width="90" height="30" as="geometry" />
        </mxCell>
        <mxCell id="P8aMWn9-jZdc1NeW5d5N-53" value="" style="endArrow=none;dashed=1;html=1;dashPattern=1 3;strokeWidth=3;rounded=0;" edge="1" parent="1">
          <mxGeometry width="50" height="50" relative="1" as="geometry">
            <mxPoint x="589.5" y="300" as="sourcePoint" />
            <mxPoint x="589.5" y="478" as="targetPoint" />
          </mxGeometry>
        </mxCell>
        <mxCell id="P8aMWn9-jZdc1NeW5d5N-54" value="" style="endArrow=classic;html=1;rounded=0;strokeWidth=2;exitX=1.009;exitY=0.154;exitDx=0;exitDy=0;exitPerimeter=0;" edge="1" parent="1">
          <mxGeometry width="50" height="50" relative="1" as="geometry">
            <mxPoint x="660" y="164.24" as="sourcePoint" />
            <mxPoint x="727.93" y="164" as="targetPoint" />
          </mxGeometry>
        </mxCell>
        <mxCell id="P8aMWn9-jZdc1NeW5d5N-55" value="" style="endArrow=classic;html=1;rounded=0;strokeWidth=2;exitX=1.009;exitY=0.154;exitDx=0;exitDy=0;exitPerimeter=0;" edge="1" parent="1">
          <mxGeometry width="50" height="50" relative="1" as="geometry">
            <mxPoint x="660" y="240" as="sourcePoint" />
            <mxPoint x="728" y="240" as="targetPoint" />
          </mxGeometry>
        </mxCell>
        <mxCell id="P8aMWn9-jZdc1NeW5d5N-56" value="" style="endArrow=classic;html=1;rounded=0;strokeWidth=2;exitX=1.009;exitY=0.154;exitDx=0;exitDy=0;exitPerimeter=0;" edge="1" parent="1">
          <mxGeometry width="50" height="50" relative="1" as="geometry">
            <mxPoint x="660" y="520.24" as="sourcePoint" />
            <mxPoint x="727.93" y="520" as="targetPoint" />
          </mxGeometry>
        </mxCell>
        <mxCell id="P8aMWn9-jZdc1NeW5d5N-69" style="edgeStyle=orthogonalEdgeStyle;rounded=0;orthogonalLoop=1;jettySize=auto;html=1;strokeWidth=2;entryX=0;entryY=0.5;entryDx=0;entryDy=0;exitX=0.994;exitY=0.543;exitDx=0;exitDy=0;exitPerimeter=0;" edge="1" parent="1" source="P8aMWn9-jZdc1NeW5d5N-57" target="P8aMWn9-jZdc1NeW5d5N-72">
          <mxGeometry relative="1" as="geometry">
            <mxPoint x="1000" y="360" as="targetPoint" />
          </mxGeometry>
        </mxCell>
        <mxCell id="P8aMWn9-jZdc1NeW5d5N-57" value="" style="rounded=1;whiteSpace=wrap;html=1;" vertex="1" parent="1">
          <mxGeometry x="730" y="110" width="230" height="460" as="geometry" />
        </mxCell>
        <mxCell id="P8aMWn9-jZdc1NeW5d5N-58" value="&lt;font size=&quot;4&quot; face=&quot;Times New Roman&quot;&gt;&lt;b&gt;传输功率&lt;/b&gt;&lt;/font&gt;" style="rounded=0;whiteSpace=wrap;html=1;fillColor=#ffe6cc;strokeColor=#d79b00;" vertex="1" parent="1">
          <mxGeometry x="740" y="140" width="100" height="49" as="geometry" />
        </mxCell>
        <mxCell id="P8aMWn9-jZdc1NeW5d5N-60" value="&lt;font size=&quot;4&quot; face=&quot;Times New Roman&quot;&gt;&lt;b&gt;RIS相移&lt;/b&gt;&lt;/font&gt;" style="rounded=0;whiteSpace=wrap;html=1;fillColor=#f8cecc;strokeColor=#b85450;" vertex="1" parent="1">
          <mxGeometry x="795" y="500" width="100" height="49" as="geometry" />
        </mxCell>
        <mxCell id="P8aMWn9-jZdc1NeW5d5N-61" value="" style="endArrow=none;dashed=1;html=1;dashPattern=1 3;strokeWidth=3;rounded=0;" edge="1" parent="1">
          <mxGeometry width="50" height="50" relative="1" as="geometry">
            <mxPoint x="844.5" y="300" as="sourcePoint" />
            <mxPoint x="844.5" y="478" as="targetPoint" />
          </mxGeometry>
        </mxCell>
        <mxCell id="P8aMWn9-jZdc1NeW5d5N-62" value="&lt;font size=&quot;3&quot; face=&quot;Times New Roman&quot;&gt;&lt;b&gt;局部动作 1&lt;/b&gt;&lt;/font&gt;" style="text;html=1;align=center;verticalAlign=middle;resizable=0;points=[];autosize=1;strokeColor=none;fillColor=none;" vertex="1" parent="1">
          <mxGeometry x="740" y="110" width="100" height="30" as="geometry" />
        </mxCell>
        <mxCell id="P8aMWn9-jZdc1NeW5d5N-63" value="&lt;font size=&quot;4&quot; face=&quot;Times New Roman&quot;&gt;&lt;b&gt;波束形成&lt;/b&gt;&lt;/font&gt;" style="rounded=0;whiteSpace=wrap;html=1;fillColor=#f5f5f5;strokeColor=#666666;fontColor=#333333;" vertex="1" parent="1">
          <mxGeometry x="850" y="140" width="100" height="49" as="geometry" />
        </mxCell>
        <mxCell id="P8aMWn9-jZdc1NeW5d5N-64" value="&lt;font size=&quot;4&quot; face=&quot;Times New Roman&quot;&gt;&lt;b&gt;传输功率&lt;/b&gt;&lt;/font&gt;" style="rounded=0;whiteSpace=wrap;html=1;fillColor=#ffe6cc;strokeColor=#d79b00;" vertex="1" parent="1">
          <mxGeometry x="740" y="220" width="100" height="49" as="geometry" />
        </mxCell>
        <mxCell id="P8aMWn9-jZdc1NeW5d5N-65" value="&lt;font size=&quot;3&quot; face=&quot;Times New Roman&quot;&gt;&lt;b&gt;局部动作 2&lt;/b&gt;&lt;/font&gt;" style="text;html=1;align=center;verticalAlign=middle;resizable=0;points=[];autosize=1;strokeColor=none;fillColor=none;" vertex="1" parent="1">
          <mxGeometry x="740" y="190" width="100" height="30" as="geometry" />
        </mxCell>
        <mxCell id="P8aMWn9-jZdc1NeW5d5N-66" value="&lt;font size=&quot;4&quot; face=&quot;Times New Roman&quot;&gt;&lt;b&gt;波束形成&lt;/b&gt;&lt;/font&gt;" style="rounded=0;whiteSpace=wrap;html=1;fillColor=#f5f5f5;strokeColor=#666666;fontColor=#333333;" vertex="1" parent="1">
          <mxGeometry x="850" y="220" width="100" height="49" as="geometry" />
        </mxCell>
        <mxCell id="P8aMWn9-jZdc1NeW5d5N-67" value="&lt;font size=&quot;3&quot; face=&quot;Times New Roman&quot;&gt;&lt;b&gt;局部动作 S+L&lt;/b&gt;&lt;/font&gt;" style="text;html=1;align=center;verticalAlign=middle;resizable=0;points=[];autosize=1;strokeColor=none;fillColor=none;" vertex="1" parent="1">
          <mxGeometry x="744" y="470" width="120" height="30" as="geometry" />
        </mxCell>
        <mxCell id="P8aMWn9-jZdc1NeW5d5N-68" value="&lt;font size=&quot;1&quot; face=&quot;Times New Roman&quot;&gt;&lt;b style=&quot;font-size: 16px;&quot;&gt;联合动作&lt;/b&gt;&lt;/font&gt;" style="text;html=1;align=center;verticalAlign=middle;resizable=0;points=[];autosize=1;strokeColor=none;fillColor=none;" vertex="1" parent="1">
          <mxGeometry x="805" y="585" width="90" height="30" as="geometry" />
        </mxCell>
        <mxCell id="P8aMWn9-jZdc1NeW5d5N-73" style="edgeStyle=orthogonalEdgeStyle;rounded=0;orthogonalLoop=1;jettySize=auto;html=1;strokeWidth=2;entryX=0.5;entryY=0;entryDx=0;entryDy=0;" edge="1" parent="1" source="P8aMWn9-jZdc1NeW5d5N-72" target="P8aMWn9-jZdc1NeW5d5N-75">
          <mxGeometry relative="1" as="geometry">
            <mxPoint x="1060" y="460" as="targetPoint" />
          </mxGeometry>
        </mxCell>
        <mxCell id="P8aMWn9-jZdc1NeW5d5N-72" value="&lt;font face=&quot;Times New Roman&quot; style=&quot;font-size: 18px;&quot;&gt;&lt;b&gt;奖励函数&lt;/b&gt;&lt;/font&gt;" style="shape=parallelogram;perimeter=parallelogramPerimeter;whiteSpace=wrap;html=1;fixedSize=1;fillColor=#dae8fc;strokeColor=#6c8ebf;" vertex="1" parent="1">
          <mxGeometry x="1000" y="330" width="120" height="60" as="geometry" />
        </mxCell>
        <mxCell id="P8aMWn9-jZdc1NeW5d5N-74" value="&lt;font size=&quot;1&quot; face=&quot;Times New Roman&quot;&gt;&lt;b style=&quot;font-size: 16px;&quot;&gt;联合奖励&lt;/b&gt;&lt;/font&gt;" style="text;html=1;align=center;verticalAlign=middle;resizable=0;points=[];autosize=1;strokeColor=none;fillColor=none;" vertex="1" parent="1">
          <mxGeometry x="1053" y="410" width="90" height="30" as="geometry" />
        </mxCell>
        <mxCell id="P8aMWn9-jZdc1NeW5d5N-76" style="edgeStyle=orthogonalEdgeStyle;rounded=0;orthogonalLoop=1;jettySize=auto;html=1;entryX=0.5;entryY=1;entryDx=0;entryDy=0;strokeWidth=2;" edge="1" parent="1" source="P8aMWn9-jZdc1NeW5d5N-75" target="P8aMWn9-jZdc1NeW5d5N-42">
          <mxGeometry relative="1" as="geometry">
            <Array as="points">
              <mxPoint x="1090" y="660" />
              <mxPoint x="335" y="660" />
            </Array>
          </mxGeometry>
        </mxCell>
        <mxCell id="P8aMWn9-jZdc1NeW5d5N-75" value="&lt;font face=&quot;Times New Roman&quot; style=&quot;font-size: 18px;&quot;&gt;&lt;b&gt;环境更新&lt;/b&gt;&lt;/font&gt;" style="ellipse;whiteSpace=wrap;html=1;fillColor=#d5e8d4;gradientColor=#009900;strokeColor=#82b366;" vertex="1" parent="1">
          <mxGeometry x="1000" y="461.5" width="120" height="80" as="geometry" />
        </mxCell>
        <mxCell id="P8aMWn9-jZdc1NeW5d5N-77" value="&lt;font size=&quot;3&quot; face=&quot;Times New Roman&quot;&gt;&lt;b&gt;建立MADRL训练单元&lt;/b&gt;&lt;/font&gt;" style="text;html=1;align=center;verticalAlign=middle;resizable=0;points=[];autosize=1;strokeColor=none;fillColor=none;" vertex="1" parent="1">
          <mxGeometry x="212" y="660" width="180" height="30" as="geometry" />
        </mxCell>
        <mxCell id="P8aMWn9-jZdc1NeW5d5N-78" value="&lt;font size=&quot;3&quot; face=&quot;Times New Roman&quot;&gt;&lt;b&gt;当前状态&lt;/b&gt;&lt;/font&gt;" style="text;html=1;align=center;verticalAlign=middle;resizable=0;points=[];autosize=1;strokeColor=none;fillColor=none;" vertex="1" parent="1">
          <mxGeometry x="690" y="660" width="90" height="30" as="geometry" />
        </mxCell>
        <mxCell id="P8aMWn9-jZdc1NeW5d5N-83" style="edgeStyle=orthogonalEdgeStyle;rounded=0;orthogonalLoop=1;jettySize=auto;html=1;entryX=-0.007;entryY=0.292;entryDx=0;entryDy=0;entryPerimeter=0;strokeWidth=2;" edge="1" parent="1" source="P8aMWn9-jZdc1NeW5d5N-80" target="P8aMWn9-jZdc1NeW5d5N-81">
          <mxGeometry relative="1" as="geometry">
            <mxPoint x="1180" y="245" as="targetPoint" />
          </mxGeometry>
        </mxCell>
        <mxCell id="P8aMWn9-jZdc1NeW5d5N-80" value="&lt;font style=&quot;font-size: 18px;&quot; face=&quot;Times New Roman&quot;&gt;&lt;b&gt;经验重放池&lt;i&gt;D&lt;/i&gt;&lt;/b&gt;&lt;/font&gt;" style="shape=cylinder3;whiteSpace=wrap;html=1;boundedLbl=1;backgroundOutline=1;size=15;fillColor=#ffcd28;strokeColor=#d79b00;gradientColor=#ffa500;strokeWidth=2;" vertex="1" parent="1">
          <mxGeometry x="1007" y="199.5" width="106" height="90.5" as="geometry" />
        </mxCell>
        <mxCell id="P8aMWn9-jZdc1NeW5d5N-81" value="" style="rounded=1;whiteSpace=wrap;html=1;dashed=1;strokeWidth=2;strokeColor=#6c8ebf;fillColor=#dae8fc;gradientColor=#99CCFF;" vertex="1" parent="1">
          <mxGeometry x="1165" y="169" width="150" height="260" as="geometry" />
        </mxCell>
        <mxCell id="P8aMWn9-jZdc1NeW5d5N-82" style="edgeStyle=orthogonalEdgeStyle;rounded=0;orthogonalLoop=1;jettySize=auto;html=1;entryX=0.5;entryY=1;entryDx=0;entryDy=0;entryPerimeter=0;strokeWidth=2;" edge="1" parent="1" source="P8aMWn9-jZdc1NeW5d5N-72" target="P8aMWn9-jZdc1NeW5d5N-80">
          <mxGeometry relative="1" as="geometry" />
        </mxCell>
        <mxCell id="P8aMWn9-jZdc1NeW5d5N-84" value="&lt;font size=&quot;3&quot; face=&quot;Times New Roman&quot;&gt;&lt;b&gt;训练过程&lt;/b&gt;&lt;/font&gt;" style="text;html=1;align=center;verticalAlign=middle;resizable=0;points=[];autosize=1;strokeColor=none;fillColor=none;" vertex="1" parent="1">
          <mxGeometry x="1130" y="130" width="90" height="30" as="geometry" />
        </mxCell>
        <mxCell id="P8aMWn9-jZdc1NeW5d5N-85" value="&lt;font size=&quot;4&quot; face=&quot;Times New Roman&quot;&gt;&lt;b&gt;计算目标值&lt;/b&gt;&lt;/font&gt;" style="rounded=0;whiteSpace=wrap;html=1;fillColor=#ffe6cc;strokeColor=#d79b00;" vertex="1" parent="1">
          <mxGeometry x="1190" y="179.5" width="100" height="49" as="geometry" />
        </mxCell>
        <mxCell id="P8aMWn9-jZdc1NeW5d5N-86" value="&lt;font size=&quot;4&quot; face=&quot;Times New Roman&quot;&gt;&lt;b&gt;Actor网络更新&lt;/b&gt;&lt;/font&gt;" style="rounded=0;whiteSpace=wrap;html=1;fillColor=#ffe6cc;strokeColor=#d79b00;" vertex="1" parent="1">
          <mxGeometry x="1177.5" y="239" width="125" height="49" as="geometry" />
        </mxCell>
        <mxCell id="P8aMWn9-jZdc1NeW5d5N-87" value="&lt;font size=&quot;4&quot; face=&quot;Times New Roman&quot;&gt;&lt;b&gt;Actor网络更新&lt;/b&gt;&lt;/font&gt;" style="rounded=0;whiteSpace=wrap;html=1;fillColor=#ffe6cc;strokeColor=#d79b00;" vertex="1" parent="1">
          <mxGeometry x="1177.5" y="303" width="125" height="49" as="geometry" />
        </mxCell>
        <mxCell id="P8aMWn9-jZdc1NeW5d5N-88" value="&lt;font size=&quot;4&quot; face=&quot;Times New Roman&quot;&gt;&lt;b&gt;目标网络更新&lt;/b&gt;&lt;/font&gt;" style="rounded=0;whiteSpace=wrap;html=1;fillColor=#ffe6cc;strokeColor=#d79b00;" vertex="1" parent="1">
          <mxGeometry x="1177.5" y="369" width="125" height="49" as="geometry" />
        </mxCell>
      </root>
    </mxGraphModel>
  </diagram>
</mxfile>
